# xmcd CD database file
# Generated: tis aug 3 13:48:44 2004 by KSCD
# 
# Track frame offsets:
#       150
#       18250
#       32573
#       54215
#       70420
#       98756
#       115678
#       131478
#       154749
#       175837
#       199290
#       217982
#       241979
#
# Disc length: 3529 seconds
#
# Revision: 10
# Processed by: cddbd v1.5.1PL0 Copyright (c) Steve Scherf et al.
# Submitted via: Kscd 1.3.3
#
DISCID=a60dc70d
DTITLE=Katja Riemann Oktett - Favourites
DYEAR=2003
DGENRE=Jazz
TTITLE0=Blue Moon
TTITLE1=Absence Makes The Heart Beat
TTITLE2=Shadows
TTITLE3=My Funny Valentine
TTITLE4=Pieces Of My Heart
TTITLE5=Careless Love
TTITLE6=Bad Boys
TTITLE7=After You Killed Me
TTITLE8=Les Choses De La Vie
TTITLE9=Trouble
TTITLE10=November Night
TTITLE11=To My Family
TTITLE12=(Bonus)
EXTD=YEAR: 2003
EXTT0=
EXTT1=
EXTT2=
EXTT3=
EXTT4=
EXTT5=
EXTT6=
EXTT7=
EXTT8=
EXTT9=
EXTT10=
EXTT11=
EXTT12=
PLAYORDER=
